<svg xmlns="http://www.w3.org/2000/svg" height="512pt" version="1.1" viewBox="-40 0 512 512" width="512pt">
<g id="surface1">
<path d="M 429.875 390.472656 C 431.042969 386.011719 431.671875 381.332031 431.671875 376.511719 C 431.671875 346.089844 406.921875 321.34375 376.503906 321.34375 L 367.402344 321.34375 L 367.402344 231.898438 C 367.402344 201.480469 342.652344 176.734375 312.234375 176.734375 L 287.066406 176.734375 L 287.066406 371.664062 L 376.492188 371.664062 C 396.15625 371.664062 414.796875 378.292969 429.875 390.472656 Z M 429.875 390.472656 " style=" stroke:none;fill-rule:nonzero;fill:rgb(0%,0%,0%);fill-opacity:1;" />
<path d="M 55.167969 371.664062 L 144.601562 371.664062 L 144.601562 176.734375 L 119.433594 176.734375 C 89.015625 176.734375 64.269531 201.480469 64.269531 231.898438 L 64.269531 321.34375 L 55.167969 321.34375 C 24.746094 321.34375 0 346.089844 0 376.507812 C 0 381.332031 0.628906 386.011719 1.796875 390.472656 C 16.878906 378.292969 35.511719 371.664062 55.167969 371.664062 Z M 55.167969 371.664062 " style=" stroke:none;fill-rule:nonzero;fill:rgb(0%,0%,0%);fill-opacity:1;" />
<path d="M 257.066406 176.734375 L 174.601562 176.734375 L 174.601562 371.664062 L 257.066406 371.664062 Z M 226.441406 349.074219 C 223.640625 351.867188 219.78125 353.46875 215.832031 353.46875 C 211.882812 353.46875 208.023438 351.867188 205.234375 349.074219 C 202.433594 346.285156 200.832031 342.414062 200.832031 338.46875 C 200.832031 334.515625 202.433594 330.648438 205.234375 327.855469 C 208.023438 325.066406 211.882812 323.46875 215.832031 323.46875 C 219.78125 323.46875 223.644531 325.066406 226.441406 327.855469 C 229.230469 330.648438 230.832031 334.515625 230.832031 338.46875 C 230.832031 342.414062 229.230469 346.285156 226.441406 349.074219 Z M 226.441406 284.808594 C 223.652344 287.597656 219.78125 289.207031 215.832031 289.207031 C 211.882812 289.207031 208.023438 287.597656 205.222656 284.808594 C 202.433594 282.015625 200.832031 278.148438 200.832031 274.195312 C 200.832031 270.257812 202.433594 266.386719 205.222656 263.597656 C 208.023438 260.808594 211.882812 259.195312 215.832031 259.195312 C 219.78125 259.195312 223.652344 260.808594 226.441406 263.597656 C 229.230469 266.386719 230.832031 270.257812 230.832031 274.195312 C 230.832031 278.148438 229.230469 282.007812 226.441406 284.808594 Z M 226.441406 220.535156 C 223.652344 223.335938 219.78125 224.9375 215.832031 224.9375 C 211.882812 224.9375 208.023438 223.335938 205.222656 220.535156 C 202.433594 217.746094 200.832031 213.886719 200.832031 209.9375 C 200.832031 205.984375 202.433594 202.117188 205.222656 199.324219 C 208.023438 196.535156 211.882812 194.9375 215.832031 194.9375 C 219.78125 194.9375 223.652344 196.535156 226.441406 199.324219 C 229.230469 202.117188 230.832031 205.984375 230.832031 209.9375 C 230.832031 213.886719 229.230469 217.746094 226.441406 220.535156 Z M 226.441406 220.535156 " style=" stroke:none;fill-rule:nonzero;fill:rgb(0%,0%,0%);fill-opacity:1;" />
<path d="M 215.835938 0 C 176.558594 0 144.601562 31.953125 144.601562 71.234375 C 144.601562 110.511719 176.558594 142.464844 215.835938 142.464844 C 255.113281 142.464844 287.066406 110.511719 287.066406 71.234375 C 287.066406 31.953125 255.113281 0 215.835938 0 Z M 226.441406 81.847656 C 223.652344 84.636719 219.78125 86.238281 215.832031 86.238281 C 211.882812 86.238281 208.023438 84.636719 205.234375 81.847656 C 202.433594 79.046875 200.832031 75.1875 200.832031 71.238281 C 200.832031 67.285156 202.433594 63.417969 205.234375 60.628906 C 208.023438 57.835938 211.882812 56.238281 215.832031 56.238281 C 219.78125 56.238281 223.652344 57.835938 226.441406 60.628906 C 229.230469 63.417969 230.832031 67.285156 230.832031 71.238281 C 230.832031 75.175781 229.230469 79.046875 226.441406 81.847656 Z M 226.441406 81.847656 " style=" stroke:none;fill-rule:nonzero;fill:rgb(0%,0%,0%);fill-opacity:1;" />
<path d="M 226.03125 401.664062 L 55.167969 401.664062 C 40.433594 401.664062 26.578125 407.40625 16.160156 417.824219 C 5.738281 428.242188 0 442.097656 0 456.835938 C 0 471.570312 5.738281 485.425781 16.15625 495.84375 C 26.574219 506.261719 40.429688 512 55.167969 512 L 226.03125 512 C 226.035156 512 226.035156 512 226.035156 512 C 226.039062 512 226.042969 512 226.046875 512 C 240.777344 512 254.632812 506.261719 265.050781 495.84375 C 286.558594 474.332031 286.558594 439.335938 265.050781 417.828125 C 254.632812 407.40625 240.777344 401.664062 226.03125 401.664062 Z M 226.441406 467.4375 C 223.652344 470.226562 219.78125 471.835938 215.832031 471.835938 C 211.882812 471.835938 208.011719 470.226562 205.222656 467.4375 C 202.433594 464.644531 200.832031 460.785156 200.832031 456.835938 C 200.832031 452.886719 202.433594 449.015625 205.222656 446.226562 C 208.023438 443.4375 211.882812 441.835938 215.832031 441.835938 C 219.78125 441.835938 223.652344 443.4375 226.441406 446.226562 C 229.230469 449.015625 230.832031 452.886719 230.832031 456.835938 C 230.832031 460.785156 229.230469 464.648438 226.441406 467.4375 Z M 226.441406 467.4375 " style=" stroke:none;fill-rule:nonzero;fill:rgb(0%,0%,0%);fill-opacity:1;" />
<path d="M 376.492188 401.664062 L 290.890625 401.664062 C 317.894531 433.359375 317.894531 480.300781 290.894531 512 L 376.492188 512 C 376.492188 512 376.496094 512 376.5 512 C 376.503906 512 376.507812 512 376.507812 512 C 391.238281 512 405.09375 506.261719 415.511719 495.84375 C 437.019531 474.332031 437.019531 439.335938 415.515625 417.828125 C 405.09375 407.40625 391.238281 401.664062 376.492188 401.664062 Z M 376.492188 401.664062 " style=" stroke:none;fill-rule:nonzero;fill:rgb(0%,0%,0%);fill-opacity:1;" />
</g>
</svg>